PathFileType	4	(X/Y/Z)	..\data\sprint.trc
DataRate	CameraRate	NumFrames	NumMarkers	Units	OrigDataRate	OrigDataStartFrame	OrigNumFrames
250.000000	250.000000	4	51	mm	250.000000	202	324
Frame#	Time	C7			RSH			LSH			MAN			T7			LARM			LELB			LFOREARM			LWR			RARM			RELB			RFOREARM			RWR			RASI			LASI			SACR			P1			P2			P3			LTHLP			LTHLD			LTHAP			LTHAD			LLEPI			LPAT			LTIAP			LTIAD			LTILAT			LLMAL			LHEEL			LMFS			LMFL			LP1MT			LTOE			LP5MT			RTHLP			RTHLD			RTHAP			RTHAD			RLEPI			RPAT			RTIAP			RTIAD			RTILAT			RLMAL			RHEEL			RMFS			RMFL			RP1MT			RTOE			RP5MT			
		X1	Y1	Z1	X2	Y2	Z2	X3	Y3	Z3	X4	Y4	Z4	X5	Y5	Z5	X6	Y6	Z6	X7	Y7	Z7	X8	Y8	Z8	X9	Y9	Z9	X10	Y10	Z10	X11	Y11	Z11	X12	Y12	Z12	X13	Y13	Z13	X14	Y14	Z14	X15	Y15	Z15	X16	Y16	Z16	X17	Y17	Z17	X18	Y18	Z18	X19	Y19	Z19	X20	Y20	Z20	X21	Y21	Z21	X22	Y22	Z22	X23	Y23	Z23	X24	Y24	Z24	X25	Y25	Z25	X26	Y26	Z26	X27	Y27	Z27	X28	Y28	Z28	X29	Y29	Z29	X30	Y30	Z30	X31	Y31	Z31	X32	Y32	Z32	X33	Y33	Z33	X34	Y34	Z34	X35	Y35	Z35	X36	Y36	Z36	X37	Y37	Z37	X38	Y38	Z38	X39	Y39	Z39	X40	Y40	Z40	X41	Y41	Z41	X42	Y42	Z42	X43	Y43	Z43	X44	Y44	Z44	X45	Y45	Z45	X46	Y46	Z46	X47	Y47	Z47	X48	Y48	Z48	X49	Y49	Z49	X50	Y50	Z50	X51	Y51	Z51	

203	0.8080000000000001	1686.697143554688	1481.026733398438	229.2837219238282	1718.701538085938	1438.455322265625	407.2238464355471	1740.456054687501	1472.33447265625	65.46345520019534	1805.183959960938	1359.608764648438	246.1501007080079	1581.878540039063	1309.94287109375	199.8773040771486	1711.498413085938	1272.467163085938	-26.5707244873047	1697.581665039063	1133.893188476563	-50.25873565673831	1819.143676757813	1058.567993164063	10.10742282867432	1911.491088867188	983.8397827148442	54.59656524658206	1582.622802734376	1320.909301757813	497.5279235839846	1473.768920898438	1241.303955078125	548.420837402344	1506.2021484375	1092.35595703125	552.2521972656252	1520.497924804688	958.7307128906255	544.0820922851565	1723.579345703126	1015.104248046875	306.8706359863282	1717.406982421876	984.7643432617192	96.36566162109381	1540.039062500001	1060.5810546875	214.2374877929689	1528.509155273438	1032.538330078125	164.1371612548829	1522.197143554688	1033.663452148438	269.4515686035157	1493.77880859375	978.7792358398442	216.1945037841798	1535.96728515625	708.280456542969	39.11387252807619	1512.883056640625	597.3594360351565	54.64182281494143	1661.436279296876	663.2908325195315	115.313949584961	1621.478515625001	553.9255981445315	122.5484085083008	1480.100463867188	502.2229309082034	80.40917968750003	1520.717895507813	419.9605712890627	145.4687957763672	1351.454956054688	578.0112304687502	175.0469970703126	1265.907592773438	689.9996337890627	184.732894897461	1329.717163085938	655.3144531250002	103.3464736938477	1191.828247070313	817.9226074218755	138.365951538086	1242.827514648438	871.872192382813	180.1068420410157	1101.116455078125	780.7644042968755	204.1969299316407	1105.838745117188	821.8865356445317	145.3041381835938	1019.149658203125	814.1459960937505	258.2644042968751	1002.015380859375	787.5712890625005	222.2468566894532	1021.106018066407	838.574829101563	135.5237884521485	1709.178344726563	764.7750244140627	426.7654113769534	1784.053466796876	681.4158325195315	419.8892517089846	1838.161743164063	806.2568969726567	375.7570190429689	1888.960693359376	733.7531738281252	374.5093383789064	1874.054199218751	563.9645996093752	394.3626708984377	1964.264038085938	609.0288696289065	370.4776916503907	1952.513671875001	368.8472595214845	300.6555175781251	1966.748291015626	245.2665405273439	270.3645629882814	1892.940063476563	337.4330139160157	361.719451904297	1946.346923828126	106.0735549926758	296.2502441406251	1904.509887695313	82.78290557861331	219.8512268066407	2058.731445312501	123.1366119384766	285.7032165527345	2018.579467773438	63.89950942993167	309.1574707031251	2139.278320312501	102.9519195556641	250.7275543212892	2141.486328125001	108.1635360717774	302.209686279297	2091.803710937501	21.85866737365723	335.0789794921876	
204	0.8120000000000001	1725.436035156251	1479.933227539063	231.0293426513673	1758.200561523438	1436.19677734375	408.1720275878909	1777.937255859376	1469.951904296875	65.11096191406253	1843.788818359376	1357.894409179688	245.4520416259767	1619.926635742188	1308.980834960938	201.3608856201173	1744.268920898438	1270.6455078125	-25.53654670715333	1726.871459960938	1131.52587890625	-49.87292861938479	1842.194580078126	1043.686767578125	4.442110538482668	1928.041625976563	956.8759155273442	42.71871948242189	1628.237670898438	1311.427734375	501.5997314453127	1523.639526367188	1226.894775390625	553.7716064453127	1563.270141601563	1079.957885742188	554.0325317382815	1583.365112304688	947.628051757813	543.3249511718752	1759.866699218751	1014.122192382813	307.7781982421876	1754.146728515626	984.2821655273442	96.24822998046881	1577.273071289063	1060.361328125	214.9129180908204	1565.926269531251	1032.571166992188	163.6812438964844	1559.519287109376	1033.391357421875	269.6814270019532	1531.065795898438	978.480590820313	216.1119689941407	1581.887573242188	703.468688964844	38.78857803344728	1563.782226562501	591.548034667969	53.50725936889651	1708.824462890626	662.701354980469	116.2338485717774	1672.159423828126	551.6403808593752	123.0452194213868	1534.767456054688	496.4585266113284	79.993278503418	1576.662963867188	415.0054016113284	144.9636840820313	1409.6953125	574.5815429687502	175.309799194336	1326.60498046875	688.8946533203127	185.1391143798829	1388.770385742188	652.4558715820315	103.2554473876954	1256.588012695313	817.8252563476567	138.5124969482422	1309.093017578125	871.2211914062505	180.347396850586	1164.633178710938	782.5892944335942	204.3631286621095	1170.3837890625	823.2903442382817	144.9957733154297	1082.367309570313	816.6628417968755	257.708465576172	1065.063720703125	790.3800659179692	221.6862792968751	1086.119262695313	840.555297851563	134.407699584961	1738.338256835938	761.2731933593752	425.7582092285159	1815.165283203126	677.3862304687502	419.5095825195315	1871.849243164063	803.941772460938	379.612762451172	1923.386718750001	729.290710449219	380.0898437500001	1900.423706054688	556.4934692382815	394.976989746094	1989.675781250001	600.4875488281252	373.280731201172	1973.747558593751	359.545867919922	300.5342712402345	1985.491088867188	235.9972229003907	270.0260009765626	1913.776733398438	330.0867614746095	361.0417480468751	1959.663208007813	97.35067749023443	295.3182373046876	1915.719116210938	77.0244064331055	219.6616516113282	2071.869628906251	109.8753204345704	284.5520629882814	2030.178100585938	52.189811706543	307.161834716797	2151.150146484376	86.39427185058597	249.2326812744142	2154.571044921876	91.99989318847659	301.5383300781251	2101.313720703126	7.735037803649906	334.5088500976564	
205	0.8160000000000001	1763.960327148438	1478.751220703125	232.3962707519532	1797.577514648438	1433.914916992188	409.1219482421877	1815.148925781251	1467.272583007813	65.06684112548831	1882.363403320313	1355.993041992188	244.7348632812501	1658.062133789063	1307.818725585938	203.3271331787111	1777.613891601563	1268.723388671875	-24.4213047027588	1756.719482421876	1129.353149414063	-49.34341049194339	1865.421875000001	1029.285034179688	-1.868622779846192	1942.641723632813	931.484985351563	30.09461021423341	1675.137695312501	1301.00048828125	504.8436279296877	1574.484863281251	1212.704223632813	559.1519775390627	1620.635620117188	1067.845458984375	555.6683349609377	1646.603881835938	937.2446899414067	542.493347167969	1796.567993164063	1012.877868652344	308.9875793457032	1790.363647460938	983.426147460938	96.41539001464849	1615.234863281251	1059.855590820313	214.6168823242189	1603.619140625001	1031.982788085938	163.8838653564454	1596.671997070313	1033.23779296875	269.4273376464845	1568.411987304688	978.3578491210942	215.9613189697267	1628.707641601563	698.430603027344	38.42668914794923	1615.517456054688	585.6654052734377	52.20050811767581	1756.019531250001	661.924987792969	117.426628112793	1724.303710937501	549.3796997070315	123.668815612793	1590.261230468751	491.1563720703127	79.18003082275393	1633.326171875001	410.596130371094	144.7261352539063	1468.2978515625	570.470397949219	175.7196502685547	1389.038940429688	685.7640380859377	184.1556701660157	1448.280517578125	648.6744384765627	102.9871292114258	1320.0751953125	816.8510131835942	138.8648834228516	1372.744506835938	870.3672485351567	180.3729858398438	1227.884155273438	782.2190551757817	204.6841278076173	1234.408203125	823.0038452148442	144.9706115722657	1146.156860351563	816.852905273438	255.7733001708986	1128.098999023438	789.6056518554692	221.1166229248048	1150.277465820313	840.2045898437505	133.8239135742188	1771.754882812501	757.887878417969	426.2762451171877	1846.034057617188	672.961853027344	419.3936157226565	1906.364013671876	802.1307983398442	383.0157470703126	1955.157470703126	723.6530761718752	384.7640686035159	1927.418823242188	549.1745605468752	395.2572937011721	2015.956298828126	591.4456176757815	374.747283935547	1994.502807617188	350.1775817871095	300.7799072265626	2001.765991210938	226.1365509033204	270.0070190429689	1933.429199218751	322.7323608398439	360.8292236328126	1972.185546875001	88.49250793457034	295.1917419433595	1926.760864257813	70.15591430664065	220.0068206787111	2086.569091796876	96.90827178955084	284.074920654297	2039.206176757813	40.75642013549806	307.1718750000001	2164.297119140626	69.88810729980472	244.4541015625001	2169.096923828126	77.32035827636722	298.129364013672	2104.630126953126	5.212927341461183	336.3043518066407	
206	0.8200000000000001	1802.257324218751	1477.34326171875	233.7077636718751	1836.849609375001	1432.158935546875	409.9283142089846	1852.245361328126	1464.270629882813	65.28193664550784	1920.936035156251	1354.59521484375	244.3367156982423	1696.102294921876	1306.512329101563	205.3664550781251	1811.842163085938	1266.247436523438	-23.48864364624024	1787.415771484376	1127.008666992188	-48.96512222290042	1887.370727539063	1016.091552734375	-8.564921379089359	1954.852661132813	908.3259277343755	17.12388420104981	1722.109375000001	1291.408935546875	508.443298339844	1627.554809570313	1197.247802734375	563.1223754882815	1679.763916015626	1056.27294921875	556.6157836914065	1713.337524414063	927.8539428710942	541.393005371094	1833.447143554688	1011.824768066407	310.5300292968751	1828.750366210938	982.4055175781255	97.86620330810553	1652.900756835938	1059.336181640625	214.7718811035157	1641.739868164063	1031.186767578125	163.4275054931641	1633.979492187501	1032.800903320313	268.9776306152345	1606.184570312501	977.6990356445317	215.3382263183595	1676.002929687501	693.2541503906252	38.0101890563965	1667.692382812501	579.9069824218752	50.74334716796878	1804.111206054688	661.499206542969	118.4739990234376	1775.736938476563	548.0132446289065	124.2265167236329	1646.456909179688	485.907653808594	78.37175750732425	1690.947509765626	406.3249816894534	144.6606140136719	1528.384887695313	565.720886230469	175.6390380859376	1450.1728515625	682.3753051757815	184.6063232421876	1508.600341796875	644.2929687500002	103.0736465454102	1383.331787109375	814.4199829101567	139.8413543701172	1435.71875	868.2897338867192	180.9049530029297	1290.662231445313	780.4382324218755	205.2264251708986	1297.67333984375	820.360961914063	144.8737487792969	1208.758178710938	814.7834472656255	255.2548065185548	1190.461181640625	787.7134399414067	220.0316314697267	1213.557373046875	837.425415039063	133.3250885009766	1804.072265625001	754.8295898437502	425.541687011719	1876.107910156251	668.1508789062502	419.793151855469	1940.252197265626	799.7114257812505	385.8845520019534	1986.212036132813	716.7523193359377	387.5794677734377	1953.366821289063	541.6730957031252	395.809509277344	2041.061767578126	582.5596923828127	375.8507385253907	2014.338867187501	340.4703063964845	300.873748779297	2017.460937500001	216.3670196533204	269.3876037597657	1952.226928710938	315.3427124023439	361.4009704589845	1982.717041015626	81.55152893066409	293.739959716797	1933.775878906251	61.88980102539065	222.3557281494142	2097.172607421876	87.03944396972659	281.4603576660157	2046.439453125001	34.14875793457033	307.7886962890626	2172.267333984376	55.09811019897464	236.3405151367189	2178.035400390626	62.49455261230472	289.8522338867189	2110.142822265626	5.013340473175051	336.1851501464845	
